<?xml version="1.0" encoding="utf-8"?>
<!-- Generator: Adobe Illustrator 26.0.0, SVG Export Plug-In . SVG Version: 6.00 Build 0)  -->
<svg version="1.1" id="Camada_1" xmlns="http://www.w3.org/2000/svg" xmlns:xlink="http://www.w3.org/1999/xlink" x="0px" y="0px"
	 viewBox="0 0 1920 1000" style="enable-background:new 0 0 1920 1000;" xml:space="preserve">
<style type="text/css">
	
		.st0{clip-path:url(#SVGID_00000015329191597389386190000005631221835173011638_);fill:url(#SVGID_00000179606983228827086100000010834093967594631553_);}
	
		.st1{clip-path:url(#SVGID_00000112623351702451101220000010470997651674052283_);fill:url(#SVGID_00000155114077130630656250000015192207194996770182_);}
</style>
<g>
	<defs>
		<rect id="SVGID_1_" x="-82.2" y="543.8" width="2002.3" height="472.9"/>
	</defs>
	<clipPath id="SVGID_00000031200218618198985180000011895597882819284620_">
		<use xlink:href="#SVGID_1_"  style="overflow:visible;"/>
	</clipPath>
	
		<linearGradient id="SVGID_00000063608531318038847710000007241720766332165306_" gradientUnits="userSpaceOnUse" x1="570.2" y1="222.2343" x2="1963.1886" y2="222.2343" gradientTransform="matrix(1 0 0 -1 0 997.89)">
		<stop  offset="1.385225e-07" style="stop-color:#67A114"/>
		<stop  offset="1" style="stop-color:#9CC937"/>
	</linearGradient>
	
		<path style="clip-path:url(#SVGID_00000031200218618198985180000011895597882819284620_);fill:url(#SVGID_00000063608531318038847710000007241720766332165306_);" d="
		M570.2,870.9c129.2-102.3,299.6-137,464.1-145.7c164.6-8.7,330.3,5.4,494-13.8c126.6-14.8,250.8-49.6,366.6-102.6
		c16.8-7.7,37.2-15.6,52.8-5.6c17,10.9,16.7,35.5,14.3,55.6c-8,68.4-19.7,144-73.3,187.2c-32.6,26.2-75.2,35.6-116.3,43.5
		c-284.4,54.4-575.4,73.9-864.6,57.9C791.7,940.8,672,927.5,570.2,870.9L570.2,870.9z"/>
</g>
<g>
	<defs>
		<rect id="SVGID_00000024002449537985022750000005967466395472518531_" x="-82.2" y="543.8" width="2002.3" height="472.9"/>
	</defs>
	<clipPath id="SVGID_00000133492811147380436370000001546124054490279586_">
		<use xlink:href="#SVGID_00000024002449537985022750000005967466395472518531_"  style="overflow:visible;"/>
	</clipPath>
	
		<linearGradient id="SVGID_00000036936766450825067140000012297604933155655359_" gradientUnits="userSpaceOnUse" x1="87.3001" y1="895.3356" x2="2035.2766" y2="895.3356">
		<stop  offset="1.385225e-07" style="stop-color:#67A114"/>
		<stop  offset="1" style="stop-color:#C4E56A"/>
	</linearGradient>
	
		<path style="clip-path:url(#SVGID_00000133492811147380436370000001546124054490279586_);fill:url(#SVGID_00000036936766450825067140000012297604933155655359_);" d="
		M1245.5,845.7c212.2-21.9,411.9-126,625.1-129.2c37.4-0.6,77.2,2.8,107.4,25c48.3,35.5,54.7,103.9,56.8,163.8
		c1.5,42.5,1.2,90-28.1,120.9c-28.6,30.1-74.7,33.6-116.2,34.3c-309.3,5.4-618.3-33.3-927.5-24.6c-287.6,8.1-599.8,81.8-875.7,0.4
		C162,924.8,310.5,835.6,443,813.5s268-7.2,401.2,9.9C977.4,840.4,1111.9,859.5,1245.5,845.7L1245.5,845.7z"/>
</g>
</svg>
